<svg id="Capa_1" data-name="Capa 1" xmlns="http://www.w3.org/2000/svg" viewBox="0 0 1000 1000"><defs><style>.cls-1{fill:#1d1d1b;}</style></defs><path class="cls-1" d="M500,861.06c-199.09,0-361.06-162-361.06-361.06S300.91,138.94,500,138.94,861.06,300.91,861.06,500,699.09,861.06,500,861.06Zm0-715.22c-195.28,0-354.16,158.88-354.16,354.16S304.72,854.16,500,854.16,854.16,695.28,854.16,500,695.28,145.84,500,145.84Z"/><path class="cls-1" d="M345.78,581.43l-19.28,2.88a1,1,0,0,0-.89,1.07L323.52,643c0,.63.24.9.81.82l19.29-2.87a18.26,18.26,0,0,0,11.81-6.46A21.64,21.64,0,0,0,360.18,621l.89-24.35c.2-5.41-1.06-9.48-3.81-12.21S350.68,580.71,345.78,581.43Zm4.61,41.86a8.14,8.14,0,0,1-2,5.07,7,7,0,0,1-4.47,2.65l-9.45,1.4c-.59.09-.86-.18-.84-.81L335,593.84a1,1,0,0,1,.9-1.07l9.47-1.41a4.79,4.79,0,0,1,4.28,1.38,5.73,5.73,0,0,1,1.67,4.49Z"/><path class="cls-1" d="M400.18,573.34,370,577.83a1,1,0,0,0-.88,1.08L367,636.49c0,.62.24.9.82.82l30.15-4.5a1,1,0,0,0,.9-1.06l.29-8c0-.63-.25-.9-.82-.82l-20.39,3c-.57.08-.84-.19-.83-.83l.5-13.39a1,1,0,0,1,.89-1.08l16.7-2.49a1,1,0,0,0,.89-1.07l.29-8c0-.63-.24-.9-.81-.81l-16.71,2.48c-.58.08-.85-.19-.82-.82l.46-12.55a1,1,0,0,1,.89-1.07l20.38-3a1,1,0,0,0,.9-1.08l.29-8C401,573.53,400.75,573.26,400.18,573.34Z"/><path class="cls-1" d="M313.35,514.49,313.14,533c20.82-10.66,36-32.62,36.37-55.9l.57-33.8a8,8,0,0,0-.31-2.22c-1.91-14.82-14.75-24.62-30.51-22.34C303.93,421,290.51,432,287.58,446.93a34.89,34.89,0,0,0-.64,5.94l-1.17,69.69C269.38,521,257.33,508,257.63,490.42l1.31-76.8c.34-20.61,17.43-39.8,38.09-42.79,13.42-1.94,25.78,3.47,32.25,14.15.08.14.19.24.28.37l2.15,4.56s1,3.76,4.26,0c2.29-2.66,4.11-9.44,6.19-13a7.27,7.27,0,0,0-.76-1.88C332,359.51,317,352.76,297.32,353.93c-35.31,2.1-63.23,32.08-63.74,62l-1.3,76.8c-.45,27,27.39,46.58,53.19,47l-.31,18.37c-.13,7.9-6.69,15.26-14.61,16.42a12.76,12.76,0,0,1-8.52-1.65c-1.47,0-1.92.58-2.61,1.57-3.29,4.74-10.64,6.79-6.57,10.73a24.43,24.43,0,0,0,15.19,6l0,0s.48,0,1.28,0h.6c4.95-.15,18.67-1.52,28.37-11.6,5.41-5.62,6.87-12.26,7.76-17.79.61-3.77,1-13.74,1.28-26.18l.21-.09.22-17.63a.71.71,0,0,0-.15.08c.34-30.16.18-64.22.18-64.22s-.52-15.41,11.23-18.17c7.92-1.15,14.25,4.34,14.12,12.25l-.53,31.66C332.33,493.33,324.61,506.4,313.35,514.49Z"/><path class="cls-1" d="M462,513.39c14.16-2,26.94-10.34,35.49-21.68,5,9.77,15.7,15.26,27.87,13.49,10.42-1.51,21.05-7.86,27.92-16.44a43.56,43.56,0,0,0,32.11,7.75c25.17-3.65,46-27.08,46.42-52.22l1.06-62.3c.43-25.14-19.72-42.63-44.89-39a57.8,57.8,0,0,0-25,10.39l.61-36.39c0-2,0-2,.1-3-11.9-.87-23.39-12.3-23.59-1.39l-.26,15.53h0l-2.43,143.66c-.13,7.9-3.88,15.32-11.81,16.46-6.82,1-17-5.1-17.52-22.42.18-1.55.29-3.12.32-4.69l.55-32.83a32.58,32.58,0,0,0,10.52-8.16c1.15-1.27,3.51-4.59,4-6.28.67-2.47-.54-4.53-.48-8,.08-5.52-1.83-4.25-5.67-1-.66.57-1.42,1.14-2.21,1.71l.1.06c-.2.24-4.86,5.67-14.82,7.5-1.07.2-2.07.36-3,.46-5.21.64-8.08.06-9.18-.27-10.24-2.26-16-11.7-15.77-24.23a6,6,0,0,0-.07-.85l.22-12.51c11.72,1.86,20.15,11.57,19.93,24.51l-.14,8a32.37,32.37,0,0,0,6.95-.61,22.24,22.24,0,0,0,10-4.34l.09-5.5c.44-25.15-19.57-41.6-44.87-39-34,3.5-52,30.09-52.41,55.25l-1.06,62.29a32,32,0,0,0,3.89,16.06,17.78,17.78,0,0,1-13.55,11.05c-7.92,1.16-14.27-4.34-14.16-10.84L390,339.12c0-2,0-2,.09-3-11.9-.86-23.39-12.31-23.58-1.38l-2.71,159.86C363.5,511.86,384,524,401.24,521.45c9.95-1.44,19.09-7.49,25-15.8C436,512.33,449.1,515.27,462,513.39ZM562.17,392.73c.28-15.82,9.74-30.53,25.57-32.83s28.5,8.72,28.22,24.55l-1.06,62.29c-.27,15.83-13.36,30.58-29.19,32.87s-24.87-8.75-24.6-24.57ZM436.69,410.42a36.19,36.19,0,0,1,15.58-28.87l-.2,11.64h0c-.08,23.18,17.33,39.68,40,38.83l-.54,31.61c-.27,15.84-13.36,30.58-29.18,32.87s-27-8-26.71-23.78Z"/><path class="cls-1" d="M695.86,480.49c25.16-3.64,46-27.07,46.41-52.22l.57-32.82a32.3,32.3,0,0,0,10.52-8.16c1.14-1.27,3.51-4.59,4-6.28.66-2.46-.55-4.52-.48-8,.09-5.51-1.84-4.26-5.67-1-.52.45-1.09.9-1.69,1.34-1.25,1.31-6,5.76-14.66,7.62-1.33.28-2.54.5-3.64.66-5.57.82-8.13.18-8.66,0l0-.07C712,379.53,706.1,370,706.31,357.28a8.14,8.14,0,0,0-.08-.85l.21-12.51c11.73,1.86,20.17,11.58,19.95,24.52l-.13,8a36.35,36.35,0,0,0,7.39-.94,25.55,25.55,0,0,0,9.6-4.17l.1-5.38c.41-25.15-19.6-41.59-44.9-39-34,3.5-52,30.1-52.4,55.25L645,444.52C644.56,469.67,670.68,484.14,695.86,480.49Zm-25.36-103a36.25,36.25,0,0,1,15.57-28.88l-.19,11.65h0c-.09,23.17,17.33,39.67,40,38.82l-.54,31.62c-.27,15.83-13.37,30.57-29.19,32.86s-27-8-26.7-23.78Z"/><path class="cls-1" d="M751.17,567.26a37.14,37.14,0,0,1-3.25,2.43,28.34,28.34,0,0,1-14.08,6.67c-1.07.2-2.06.35-3,.47a37.74,37.74,0,0,1-4.7.3v.12a25.11,25.11,0,0,1-2.64-.26,12.43,12.43,0,0,1-2.56-.52l0,0c-9.56-2.68-14.87-11.87-14.68-24,0-.29,0-.57-.06-.86l.2-12.51c11.73,1.87,20.16,11.58,19.95,24.52l-.14,8.35a33.76,33.76,0,0,0,6.58-.67,23.05,23.05,0,0,0,10.42-4.57l.08-5.56c.42-25.16-19.58-41.59-44.88-39-34,3.49-52,30.09-52.41,55.24l-1,62.29a33.75,33.75,0,0,0,.53,6.2c0,.13,0,.24,0,.39.46,11.78-8.8,23.17-14.68,22.36-7.48-1-7.58-9.24-7.46-16.67l1.71-100.89a7,7,0,0,0-8.33-7.23l-42.47,5.59a10.29,10.29,0,0,0-8.62,9.43c0,.16-.87,14.64-12.18,24.54-1.54,1.34-3,2.5-4.45,3.53a30.26,30.26,0,0,1-12.45,5.63c-1.13.24-2.18.42-3.16.56-6.72,1-9.94-.08-10.34-.22-13.33-2.85-20-15.89-19.68-32.41l.4-23.44c15.2,2.53,26.09,15.19,25.8,32l-.32,18.84a37.25,37.25,0,0,0,6.12-.83,24,24,0,0,0,10.9-5.13l.26-15.33c.5-30-23.53-50.88-53.57-46.53s-57.69,32.26-58.2,62.27l-1.31,77.07c-.51,30,26.33,50.93,56.36,46.58s54.9-32.3,55.4-62.32l.64-37a62.3,62.3,0,0,0,17.48-11.19,57.94,57.94,0,0,0,17.93-30.22l19.19-2.75L598.83,660c-.28,16.76,13.16,28.43,30,26,11.76-1.7,22.37-10,27.6-20.85,9.87,8.69,24.79,12.73,39.44,10.61,25.18-3.64,46-27.08,46.43-52.23l.57-32.81a32.79,32.79,0,0,0,10.52-8.16c1.14-1.28,3.5-4.6,4-6.28.67-2.47-.54-4.52-.48-8C756.93,562.72,755,564,751.17,567.26ZM528.31,646.18c-.35,20.69-16.06,37.48-36.77,40.48s-33-11.62-32.66-32.32l1.27-74.26c.28-16.26,7.48-31.66,20.58-39l-.39,22.81c-.47,28.24,20.94,48.29,48.57,46.62Zm197-20.25c-.26,15.83-13.37,30.58-29.19,32.87s-27-8-26.69-23.78l1-62.3a36.25,36.25,0,0,1,15.58-28.87l-.19,11.65h0c-.09,23.17,17.32,39.66,40,38.82Z"/></svg>